<mxfile host="app.diagrams.net" modified="2021-02-19T22:37:43.165Z" agent="5.0 (Windows NT 10.0; Win64; x64) AppleWebKit/537.36 (KHTML, like Gecko) Chrome/88.0.4324.150 Safari/537.36" etag="IIBqp53L3FT-vtZ8cPRa" version="14.2.7" type="github">
  <diagram name="Page-1" id="12e1b939-464a-85fe-373e-61e167be1490">
    <mxGraphModel dx="821" dy="437" grid="1" gridSize="10" guides="1" tooltips="1" connect="1" arrows="1" fold="1" page="1" pageScale="1.5" pageWidth="1169" pageHeight="826" background="#ffffff" math="0" shadow="0">
      <root>
        <mxCell id="0" />
        <mxCell id="1" parent="0" />
        <mxCell id="60da8b9f42644d3a-2" value="" style="whiteSpace=wrap;html=1;rounded=1;shadow=0;strokeWidth=8;fontSize=20;align=center;fillColor=#FED217;strokeColor=#FFFFFF;" parent="1" vertex="1">
          <mxGeometry x="316" y="405" width="280" height="430" as="geometry" />
        </mxCell>
        <mxCell id="60da8b9f42644d3a-3" value="&lt;font color=&quot;#000099&quot;&gt;SIGN-UP FORMS&lt;/font&gt;" style="text;html=1;strokeColor=none;fillColor=none;align=center;verticalAlign=middle;whiteSpace=wrap;rounded=0;shadow=0;fontSize=27;fontColor=#FFFFFF;fontStyle=1" parent="1" vertex="1">
          <mxGeometry x="316" y="425" width="280" height="60" as="geometry" />
        </mxCell>
        <mxCell id="60da8b9f42644d3a-6" value="" style="line;strokeWidth=2;html=1;rounded=0;shadow=0;fontSize=27;align=center;fillColor=none;strokeColor=#FFFFFF;" parent="1" vertex="1">
          <mxGeometry x="336" y="485" width="240" height="10" as="geometry" />
        </mxCell>
        <mxCell id="60da8b9f42644d3a-17" value="" style="whiteSpace=wrap;html=1;rounded=1;shadow=0;strokeWidth=8;fontSize=20;align=center;fillColor=#FFC001;strokeColor=#FFFFFF;" parent="1" vertex="1">
          <mxGeometry x="596" y="405" width="280" height="430" as="geometry" />
        </mxCell>
        <mxCell id="60da8b9f42644d3a-18" value="&lt;font color=&quot;#000099&quot;&gt;ASSIGN ROLES&lt;/font&gt;" style="text;html=1;strokeColor=none;fillColor=none;align=center;verticalAlign=middle;whiteSpace=wrap;rounded=0;shadow=0;fontSize=27;fontColor=#FFFFFF;fontStyle=1" parent="1" vertex="1">
          <mxGeometry x="596" y="425" width="280" height="60" as="geometry" />
        </mxCell>
        <mxCell id="60da8b9f42644d3a-19" value="&lt;font color=&quot;#000066&quot;&gt;RESCUER&lt;br&gt;FOSTER&lt;br&gt;PLACEMENT&lt;br&gt;REGIONAL MGR&lt;br&gt;SUPER ADMIN&lt;br&gt;ADOPTER&lt;br&gt;&lt;/font&gt;" style="text;html=1;strokeColor=none;fillColor=none;align=center;verticalAlign=middle;whiteSpace=wrap;rounded=0;shadow=0;fontSize=14;fontColor=#FFFFFF;" parent="1" vertex="1">
          <mxGeometry x="610" y="628" width="250" height="135" as="geometry" />
        </mxCell>
        <mxCell id="60da8b9f42644d3a-20" value="" style="line;strokeWidth=2;html=1;rounded=0;shadow=0;fontSize=27;align=center;fillColor=none;strokeColor=#FFFFFF;" parent="1" vertex="1">
          <mxGeometry x="616" y="485" width="240" height="10" as="geometry" />
        </mxCell>
        <mxCell id="60da8b9f42644d3a-24" value="" style="whiteSpace=wrap;html=1;rounded=1;shadow=0;strokeWidth=8;fontSize=20;align=center;fillColor=#FFB001;strokeColor=#FFFFFF;" parent="1" vertex="1">
          <mxGeometry x="876" y="405" width="280" height="430" as="geometry" />
        </mxCell>
        <mxCell id="60da8b9f42644d3a-25" value="&lt;font color=&quot;#000099&quot;&gt;LOGIN / DASHBOARD&lt;/font&gt;" style="text;html=1;strokeColor=none;fillColor=none;align=center;verticalAlign=middle;whiteSpace=wrap;rounded=0;shadow=0;fontSize=27;fontColor=#FFFFFF;fontStyle=1" parent="1" vertex="1">
          <mxGeometry x="876" y="425" width="280" height="60" as="geometry" />
        </mxCell>
        <mxCell id="60da8b9f42644d3a-27" value="" style="line;strokeWidth=2;html=1;rounded=0;shadow=0;fontSize=27;align=center;fillColor=none;strokeColor=#FFFFFF;" parent="1" vertex="1">
          <mxGeometry x="896" y="485" width="240" height="10" as="geometry" />
        </mxCell>
        <mxCell id="60da8b9f42644d3a-31" value="" style="whiteSpace=wrap;html=1;rounded=1;shadow=0;strokeWidth=8;fontSize=20;align=center;fillColor=#FE9900;strokeColor=#FFFFFF;" parent="1" vertex="1">
          <mxGeometry x="1156" y="405" width="280" height="430" as="geometry" />
        </mxCell>
        <mxCell id="60da8b9f42644d3a-32" value="&lt;font color=&quot;#000099&quot;&gt;DOG DOSSIER&lt;/font&gt;" style="text;html=1;strokeColor=none;fillColor=none;align=center;verticalAlign=middle;whiteSpace=wrap;rounded=0;shadow=0;fontSize=27;fontColor=#FFFFFF;fontStyle=1" parent="1" vertex="1">
          <mxGeometry x="1156" y="425" width="280" height="60" as="geometry" />
        </mxCell>
        <mxCell id="60da8b9f42644d3a-34" value="" style="line;strokeWidth=2;html=1;rounded=0;shadow=0;fontSize=27;align=center;fillColor=none;strokeColor=#FFFFFF;" parent="1" vertex="1">
          <mxGeometry x="1176" y="485" width="240" height="10" as="geometry" />
        </mxCell>
        <mxCell id="tpnunkOwCYL0SpnshVto-3" value="&lt;ol&gt;&lt;li&gt;&lt;font color=&quot;#000066&quot;&gt;New Adopter Application (&lt;i&gt;Public&lt;/i&gt;)&lt;/font&gt;&lt;/li&gt;&lt;li&gt;&lt;font color=&quot;#000066&quot;&gt;New Rescuer/Foster Application (&lt;i&gt;Public&lt;/i&gt;)&lt;/font&gt;&lt;/li&gt;&lt;li&gt;&lt;font color=&quot;#000066&quot;&gt;New Placement Coordinator Application (&lt;i&gt;Public&lt;/i&gt;)&lt;/font&gt;&lt;/li&gt;&lt;li&gt;&lt;font color=&quot;#000066&quot;&gt;New Admin User (&lt;i&gt;SuperAdmin Only&lt;/i&gt;)&lt;/font&gt;&lt;/li&gt;&lt;/ol&gt;" style="text;html=1;strokeColor=none;fillColor=none;align=left;verticalAlign=middle;whiteSpace=wrap;rounded=0;shadow=0;fontSize=14;fontColor=#FFFFFF;" vertex="1" parent="1">
          <mxGeometry x="311" y="616" width="280" height="155" as="geometry" />
        </mxCell>
        <mxCell id="tpnunkOwCYL0SpnshVto-4" value="&lt;ul&gt;&lt;li&gt;&lt;font color=&quot;#000066&quot;&gt;USERS login to the SYSTEM&lt;/font&gt;&lt;/li&gt;&lt;li&gt;&lt;font color=&quot;#000066&quot;&gt;COMPONENTS will be loaded for a given user based on PERMISSIONS assigned the their assigned ROLE(s).&lt;/font&gt;&lt;/li&gt;&lt;li&gt;&lt;span style=&quot;color: rgb(0 , 0 , 102)&quot;&gt;USERS can have MANY ROLES&lt;/span&gt;&lt;/li&gt;&lt;li&gt;&lt;font color=&quot;#000066&quot;&gt;Each ROLE has specific tasks to perform in updating the DOG DOSSIER&lt;/font&gt;&lt;/li&gt;&lt;/ul&gt;" style="text;html=1;strokeColor=none;fillColor=none;align=left;verticalAlign=middle;whiteSpace=wrap;rounded=0;shadow=0;fontSize=14;fontColor=#FFFFFF;" vertex="1" parent="1">
          <mxGeometry x="880" y="625" width="250" height="185" as="geometry" />
        </mxCell>
        <mxCell id="tpnunkOwCYL0SpnshVto-6" value="&lt;ul&gt;&lt;li&gt;&lt;font color=&quot;#000066&quot;&gt;RESCUER creates DOG DOSSIER&lt;/font&gt;&lt;/li&gt;&lt;li&gt;&lt;font color=&quot;#000066&quot;&gt;SUPER ADMIN approves DOSSIER, assigns to REGIONAL&lt;/font&gt;&lt;/li&gt;&lt;li&gt;&lt;font color=&quot;#000066&quot;&gt;REGIONAL recruits, approves &amp;amp; assigns FOSTERS &amp;amp; ADOPTERS&lt;/font&gt;&lt;/li&gt;&lt;li&gt;&lt;font color=&quot;#000066&quot;&gt;FOSTERS update DOG DOSSIER until Aussie becomes READY to ADOPT&lt;/font&gt;&lt;/li&gt;&lt;li&gt;&lt;font color=&quot;#000066&quot;&gt;System auto MATCHES DOG with ADOPTER&lt;/font&gt;&lt;/li&gt;&lt;li&gt;&lt;font color=&quot;#000066&quot;&gt;PLACEMENT conducts Meet and Greet&lt;/font&gt;&lt;/li&gt;&lt;li&gt;&lt;font color=&quot;#000066&quot;&gt;AUSSIE &amp;amp; ADOPTER are UNITED&lt;br&gt;&lt;/font&gt;&lt;/li&gt;&lt;/ul&gt;&lt;font color=&quot;#000066&quot;&gt;&lt;br&gt;&lt;/font&gt;" style="text;html=1;strokeColor=none;fillColor=none;align=left;verticalAlign=middle;whiteSpace=wrap;rounded=0;shadow=0;fontSize=14;fontColor=#FFFFFF;" vertex="1" parent="1">
          <mxGeometry x="1138" y="648" width="290" height="153" as="geometry" />
        </mxCell>
        <mxCell id="tpnunkOwCYL0SpnshVto-7" value="" style="group" vertex="1" connectable="0" parent="1">
          <mxGeometry x="259" y="503" width="1235" height="115" as="geometry" />
        </mxCell>
        <mxCell id="60da8b9f42644d3a-8" value="ADOPTERS &lt;br&gt;&amp;amp;&lt;br&gt;VOLUNTEERS" style="ellipse;whiteSpace=wrap;html=1;rounded=0;shadow=0;strokeWidth=6;fontSize=14;align=center;fillColor=#BFB4A9;strokeColor=#FFFFFF;fontColor=#FFFFFF;" parent="tpnunkOwCYL0SpnshVto-7" vertex="1">
          <mxGeometry width="115" height="115" as="geometry" />
        </mxCell>
        <mxCell id="60da8b9f42644d3a-9" value="" style="html=1;shadow=0;dashed=0;align=center;verticalAlign=middle;shape=mxgraph.arrows2.stylisedArrow;dy=0.6;dx=40;notch=15;feather=0.4;rounded=0;strokeWidth=1;fontSize=27;strokeColor=none;fillColor=#fff2cc;" parent="tpnunkOwCYL0SpnshVto-7" vertex="1">
          <mxGeometry x="147" y="28" width="100" height="60" as="geometry" />
        </mxCell>
        <mxCell id="60da8b9f42644d3a-22" value="ASF USERS" style="ellipse;whiteSpace=wrap;html=1;rounded=0;shadow=0;strokeWidth=6;fontSize=14;align=center;fillColor=#397DAA;strokeColor=#FFFFFF;fontColor=#FFFFFF;" parent="tpnunkOwCYL0SpnshVto-7" vertex="1">
          <mxGeometry x="280" width="115" height="115" as="geometry" />
        </mxCell>
        <mxCell id="60da8b9f42644d3a-23" value="" style="html=1;shadow=0;dashed=0;align=center;verticalAlign=middle;shape=mxgraph.arrows2.stylisedArrow;dy=0.6;dx=40;notch=15;feather=0.4;rounded=0;strokeWidth=1;fontSize=27;strokeColor=none;fillColor=#fff2cc;" parent="tpnunkOwCYL0SpnshVto-7" vertex="1">
          <mxGeometry x="427" y="28" width="100" height="60" as="geometry" />
        </mxCell>
        <mxCell id="60da8b9f42644d3a-29" value="PERMISSIONS" style="ellipse;whiteSpace=wrap;html=1;rounded=0;shadow=0;strokeWidth=6;fontSize=14;align=center;fillColor=#EF9353;strokeColor=#FFFFFF;fontColor=#FFFFFF;" parent="tpnunkOwCYL0SpnshVto-7" vertex="1">
          <mxGeometry x="560" width="115" height="115" as="geometry" />
        </mxCell>
        <mxCell id="60da8b9f42644d3a-30" value="" style="html=1;shadow=0;dashed=0;align=center;verticalAlign=middle;shape=mxgraph.arrows2.stylisedArrow;dy=0.6;dx=40;notch=15;feather=0.4;rounded=0;strokeWidth=1;fontSize=27;strokeColor=none;fillColor=#fff2cc;" parent="tpnunkOwCYL0SpnshVto-7" vertex="1">
          <mxGeometry x="707" y="28" width="100" height="60" as="geometry" />
        </mxCell>
        <mxCell id="60da8b9f42644d3a-36" value="RESCUE TO ADOPTION PROCESS" style="ellipse;whiteSpace=wrap;html=1;rounded=0;shadow=0;strokeWidth=6;fontSize=14;align=center;fillColor=#68B85C;strokeColor=#FFFFFF;fontColor=#FFFFFF;" parent="tpnunkOwCYL0SpnshVto-7" vertex="1">
          <mxGeometry x="840" width="115" height="115" as="geometry" />
        </mxCell>
        <mxCell id="60da8b9f42644d3a-37" value="" style="html=1;shadow=0;dashed=0;align=center;verticalAlign=middle;shape=mxgraph.arrows2.stylisedArrow;dy=0.6;dx=40;notch=15;feather=0.4;rounded=0;strokeWidth=1;fontSize=27;strokeColor=none;fillColor=#fff2cc;" parent="tpnunkOwCYL0SpnshVto-7" vertex="1">
          <mxGeometry x="987" y="28" width="100" height="60" as="geometry" />
        </mxCell>
        <mxCell id="60da8b9f42644d3a-38" value="ADOPTED!&lt;br&gt;FUREVER&lt;br&gt;&amp;nbsp;HOME" style="ellipse;whiteSpace=wrap;html=1;rounded=0;shadow=0;strokeWidth=6;fontSize=14;align=center;fillColor=#BF639A;strokeColor=#FFFFFF;fontColor=#FFFFFF;" parent="tpnunkOwCYL0SpnshVto-7" vertex="1">
          <mxGeometry x="1120" width="115" height="115" as="geometry" />
        </mxCell>
      </root>
    </mxGraphModel>
  </diagram>
</mxfile>
